<svg width="24" height="24" viewBox="0 0 24 24" fill="none" xmlns="http://www.w3.org/2000/svg">
<g clip-path="url(#clip0)">
<path d="M12 24C18.6274 24 24 18.6274 24 12C24 5.37258 18.6274 0 12 0C5.37258 0 0 5.37258 0 12C0 18.6274 5.37258 24 12 24Z" fill="#333333"/>
<path d="M4.95653 11.1304L3.65219 8.76405L4.95653 6.43478L6.26087 8.76405L4.95653 11.1304Z" fill="#333333"/>
<path d="M2.34783 11.1304L1.04349 8.76405L2.34783 6.43478L3.65218 8.76405L2.34783 11.1304Z" fill="#333333"/>
<path d="M4.95653 17.5653L3.65219 15.1989L4.95653 12.8696L6.26087 15.1989L4.95653 17.5653Z" fill="#333333"/>
<path d="M2.34783 17.5653L1.04349 15.1989L2.34783 12.8696L3.65218 15.1989L2.34783 17.5653Z" fill="#333333"/>
<path d="M6.26083 2.32933L5.89155 1.66989C5.22921 2.06233 4.60797 2.51669 4.03558 3.025L4.95649 4.69567L6.26083 2.32933Z" fill="#333333"/>
<path d="M4.9565 19.3044L4.02585 20.9664C4.59772 21.4753 5.21853 21.9304 5.88059 22.3236L6.26089 21.6337L4.9565 19.3044Z" fill="#333333"/>
<path d="M7.30435 15.1305V23.0459C8.74665 23.6598 10.3335 24 12 24C17.1596 24 21.5581 20.7435 23.2536 16.1739L7.30435 15.1305Z" fill="#333333"/>
<path d="M23.2536 16.1739C23.736 14.8739 24 13.4678 24 12C24 5.37263 18.6274 0 12 0C10.3336 0 8.74665 0.339984 7.30435 0.953813V16.1739H23.2536V16.1739Z" fill="#333333"/>
</g>
<defs>
<clipPath id="clip0">
<rect width="24" height="24" fill="white"/>
</clipPath>
</defs>
</svg>
