<svg width="60" height="30" viewBox="0 0 60 30" fill="none" xmlns="http://www.w3.org/2000/svg">
<path fill-rule="evenodd" clip-rule="evenodd" d="M3 6H27V7H3V6ZM3 23H27V24H3V23ZM27 15H3V16H27V15Z" fill="#ffffff"/>
<path fill-rule="evenodd" clip-rule="evenodd" d="M36.1187 23.2855C35.9604 23.449 35.9604 23.7139 36.1187 23.8774C36.2769 24.0408 36.5334 24.0408 36.6917 23.8774L45 15.2959L53.3083 23.8774C53.4666 24.0408 53.7231 24.0408 53.8813 23.8774C54.0396 23.714 54.0396 23.449 53.8813 23.2856L45.573 14.7041L53.3084 6.7144C53.4666 6.55097 53.4666 6.286 53.3084 6.12257C53.1501 5.95914 52.8936 5.95914 52.7354 6.12257L45 14.1123L37.2646 6.12261C37.1064 5.95918 36.8499 5.95918 36.6916 6.12261C36.5334 6.28604 36.5334 6.55101 36.6916 6.71444L44.427 14.7041L36.1187 23.2855Z" fill="#ffffff"/>
</svg>
