<svg width="30" height="30" viewBox="0 0 30 30" fill="none" xmlns="http://www.w3.org/2000/svg">
<path d="M22.2 22.8H7.8C6.78 22.8 6 22.02 6 21V7.8C6 6.78 6.66 6 7.5 6H8.4V7.2H7.5C7.38 7.2 7.2 7.44 7.2 7.8V21C7.2 21.36 7.44 21.6 7.8 21.6H22.2C22.56 21.6 22.8 21.36 22.8 21V7.8C22.8 7.44 22.62 7.2 22.5 7.2H21.6V6H22.5C23.34 6 24 6.78 24 7.8V21C24 22.02 23.22 22.8 22.2 22.8Z" fill="#333333"/>
<path d="M10.2 8.39999C9.84001 8.39999 9.60001 8.15999 9.60001 7.79999V5.39999C9.60001 5.03999 9.84001 4.79999 10.2 4.79999C10.56 4.79999 10.8 5.03999 10.8 5.39999V7.79999C10.8 8.15999 10.56 8.39999 10.2 8.39999Z" fill="#333333"/>
<path d="M19.8 8.39999C19.44 8.39999 19.2 8.15999 19.2 7.79999V5.39999C19.2 5.03999 19.44 4.79999 19.8 4.79999C20.16 4.79999 20.4 5.03999 20.4 5.39999V7.79999C20.4 8.15999 20.16 8.39999 19.8 8.39999Z" fill="#333333"/>
<path d="M12 6H18V7.2H12V6Z" fill="#333333"/>
<path d="M7.2 9.60001H22.8V10.8H7.2V9.60001Z" fill="#333333"/>
<path d="M20.4 12H21.6V13.2H20.4V12Z" fill="#333333"/>
<path d="M18 12H19.2V13.2H18V12Z" fill="#333333"/>
<path d="M15.6 12H16.8V13.2H15.6V12Z" fill="#333333"/>
<path d="M13.2 12H14.4V13.2H13.2V12Z" fill="#333333"/>
<path d="M10.8 12H12V13.2H10.8V12Z" fill="#333333"/>
<path d="M20.4 14.4H21.6V15.6H20.4V14.4Z" fill="#333333"/>
<path d="M18 14.4H19.2V15.6H18V14.4Z" fill="#333333"/>
<path d="M15.6 14.4H16.8V15.6H15.6V14.4Z" fill="#333333"/>
<path d="M13.2 14.4H14.4V15.6H13.2V14.4Z" fill="#333333"/>
<path d="M10.8 14.4H12V15.6H10.8V14.4Z" fill="#333333"/>
<path d="M8.39999 14.4H9.59999V15.6H8.39999V14.4Z" fill="#333333"/>
<path d="M20.4 16.8H21.6V18H20.4V16.8Z" fill="#333333"/>
<path d="M18 16.8H19.2V18H18V16.8Z" fill="#333333"/>
<path d="M15.6 16.8H16.8V18H15.6V16.8Z" fill="#333333"/>
<path d="M13.2 16.8H14.4V18H13.2V16.8Z" fill="#333333"/>
<path d="M10.8 16.8H12V18H10.8V16.8Z" fill="#333333"/>
<path d="M8.39999 16.8H9.59999V18H8.39999V16.8Z" fill="#333333"/>
<path d="M18 19.2H19.2V20.4H18V19.2Z" fill="#333333"/>
<path d="M15.6 19.2H16.8V20.4H15.6V19.2Z" fill="#333333"/>
<path d="M13.2 19.2H14.4V20.4H13.2V19.2Z" fill="#333333"/>
<path d="M10.8 19.2H12V20.4H10.8V19.2Z" fill="#333333"/>
<path d="M8.39999 19.2H9.59999V20.4H8.39999V19.2Z" fill="#333333"/>
</svg>
