<svg width="204" height="70" viewBox="0 0 204 70" fill="none" xmlns="http://www.w3.org/2000/svg">
<path fill-rule="evenodd" clip-rule="evenodd" d="M193.5 5.18182H196.875C197.496 5.18182 198 5.67023 198 6.27273H180C180 5.67023 180.504 5.18182 181.125 5.18182H184.5C184.5 3.97683 185.507 3 186.75 3H191.25C192.493 3 193.5 3.97683 193.5 5.18182V5.18182ZM181.066 7.27705H196.895L196.105 25.6255C196.105 25.6255 195.807 27 194.684 27H183.315C182.192 27 181.894 25.6255 181.894 25.6255L181.066 7.27705ZM193.388 9.54546H192.263L191.7 25.2957H192.825L193.388 9.54546ZM186.188 25.2957L185.625 9.54546H184.5L185.062 25.2957H186.188ZM188.438 9.54546V25.2957H189.563V9.54546H188.438Z" fill="#333333"/>
<path fill-rule="evenodd" clip-rule="evenodd" d="M152.414 6.41421C151.633 5.63317 150.367 5.63317 149.586 6.41421L148.172 7.82843L151.707 11.364L153.121 9.94975C153.902 9.1687 153.902 7.90237 153.121 7.12132L152.414 6.41421ZM136.045 20.4815L135.444 24.0919L139.054 23.4901C139.465 23.4216 139.845 23.2263 140.139 22.9316L151 12.0711L147.464 8.53553L136.604 19.396C136.309 19.6908 136.114 20.0703 136.045 20.4815Z" fill="#333333"/>
<g clip-path="url(#clip0)">
<path d="M102 27C108.627 27 114 21.6274 114 15C114 8.37258 108.627 3 102 3C95.3726 3 90 8.37258 90 15C90 21.6274 95.3726 27 102 27Z" fill="#333333"/>
<path d="M94.9565 14.1304L93.6522 11.7641L94.9565 9.43478L96.2609 11.7641L94.9565 14.1304Z" fill="#333333"/>
<path d="M92.3478 14.1304L91.0435 11.7641L92.3478 9.43478L93.6522 11.7641L92.3478 14.1304Z" fill="#333333"/>
<path d="M94.9565 20.5653L93.6522 18.1989L94.9565 15.8696L96.2609 18.1989L94.9565 20.5653Z" fill="#333333"/>
<path d="M92.3478 20.5653L91.0435 18.1989L92.3478 15.8696L93.6522 18.1989L92.3478 20.5653Z" fill="#333333"/>
<path d="M96.2608 5.32933L95.8916 4.66989C95.2292 5.06233 94.608 5.51669 94.0356 6.025L94.9565 7.69567L96.2608 5.32933Z" fill="#333333"/>
<path d="M94.9565 22.3044L94.0258 23.9664C94.5977 24.4753 95.2185 24.9304 95.8806 25.3236L96.2609 24.6337L94.9565 22.3044Z" fill="#333333"/>
<path d="M97.3044 18.1305V26.0459C98.7466 26.6598 100.334 27 102 27C107.16 27 111.558 23.7435 113.254 19.1739L97.3044 18.1305Z" fill="#333333"/>
<path d="M113.254 19.1739C113.736 17.8739 114 16.4678 114 15C114 8.37263 108.627 3 102 3C100.334 3 98.7466 3.33998 97.3044 3.95381V19.1739H113.254V19.1739Z" fill="#333333"/>
</g>
<path fill-rule="evenodd" clip-rule="evenodd" d="M60 27C66.6274 27 72 21.6274 72 15C72 8.37258 66.6274 3 60 3C53.3726 3 48 8.37258 48 15C48 21.6274 53.3726 27 60 27ZM66.0755 12.6165L58.2279 20.7187L53.8704 16.22C53.8151 16.1643 53.6591 16.0042 53.5632 15.7252C53.5081 15.5648 53.4763 15.3625 53.5215 15.1377C53.5672 14.9107 53.6843 14.6959 53.8715 14.5025C54.0584 14.3096 54.2702 14.1846 54.4996 14.1355C54.7274 14.0866 54.932 14.1212 55.0926 14.18C55.2775 14.2478 55.4502 14.3621 55.5844 14.5067L58.2279 17.236L64.3866 10.8776C64.5379 10.7366 64.7158 10.6275 64.9124 10.5622C65.0736 10.5087 65.2791 10.4759 65.5063 10.5219C65.7381 10.5687 65.9557 10.6901 66.1464 10.8869C66.3368 11.0835 66.452 11.3058 66.488 11.5422C66.5233 11.7742 66.4761 11.9791 66.4106 12.1364C66.2979 12.407 66.1345 12.5615 66.0755 12.6165Z" fill="#333333"/>
<path fill-rule="evenodd" clip-rule="evenodd" d="M3 15C3 21.6274 8.37258 27 15 27C21.6274 27 27 21.6274 27 15C27 8.37258 21.6274 3 15 3C8.37258 3 3 8.37258 3 15ZM25 15C25 20.5228 20.5228 25 15 25C9.47715 25 5 20.5228 5 15C5 9.47715 9.47715 5 15 5C20.5228 5 25 9.47715 25 15Z" fill="#333333"/>
<path fill-rule="evenodd" clip-rule="evenodd" d="M187.513 55L182.308 49.7951C181.897 49.3844 181.897 48.7186 182.308 48.308C182.719 47.8973 183.384 47.8973 183.795 48.308L189 53.5129L194.205 48.308C194.616 47.8973 195.281 47.8973 195.692 48.308C196.103 48.7186 196.103 49.3844 195.692 49.7951L190.487 55L195.692 60.2049C196.103 60.6156 196.103 61.2814 195.692 61.692C195.281 62.1027 194.616 62.1027 194.205 61.692L189 56.4871L183.795 61.692C183.384 62.1027 182.719 62.1027 182.308 61.692C181.897 61.2814 181.897 60.6156 182.308 60.2049L187.513 55Z" fill="#333333"/>
<path fill-rule="evenodd" clip-rule="evenodd" d="M20.3621 44.1552C20.5525 44.3551 20.5448 44.6716 20.3448 44.8621L10.225 54.5L20.3448 64.1379C20.5448 64.3284 20.5525 64.6449 20.3621 64.8448C20.1716 65.0448 19.8551 65.0525 19.6552 64.8621L9.15517 54.8621C9.05608 54.7677 9 54.6368 9 54.5C9 54.3632 9.05608 54.2323 9.15517 54.1379L19.6552 44.1379C19.8551 43.9475 20.1716 43.9552 20.3621 44.1552Z" fill="#333333"/>
<path fill-rule="evenodd" clip-rule="evenodd" d="M54.1379 64.8448C53.9475 64.6449 53.9552 64.3284 54.1552 64.1379L64.275 54.5L54.1552 44.8621C53.9552 44.6716 53.9475 44.3551 54.1379 44.1552C54.3284 43.9552 54.6449 43.9475 54.8448 44.1379L65.3448 54.1379C65.4439 54.2323 65.5 54.3632 65.5 54.5C65.5 54.6368 65.4439 54.7677 65.3448 54.8621L54.8448 64.8621C54.6449 65.0525 54.3284 65.0448 54.1379 64.8448Z" fill="#333333"/>
<path fill-rule="evenodd" clip-rule="evenodd" d="M112.095 60.1121C111.895 60.3025 111.578 60.2948 111.388 60.0948L101.75 49.975L92.1121 60.0948C91.9216 60.2948 91.6051 60.3025 91.4052 60.1121C91.2052 59.9216 91.1975 59.6051 91.3879 59.4052L101.388 48.9052C101.482 48.8061 101.613 48.75 101.75 48.75C101.887 48.75 102.018 48.8061 102.112 48.9052L112.112 59.4052C112.303 59.6051 112.295 59.9216 112.095 60.1121Z" fill="#333333"/>
<path fill-rule="evenodd" clip-rule="evenodd" d="M133.405 48.8879C133.605 48.6975 133.922 48.7052 134.112 48.9052L143.75 59.025L153.388 48.9052C153.578 48.7052 153.895 48.6975 154.095 48.8879C154.295 49.0784 154.303 49.3949 154.112 49.5948L144.112 60.0948C144.018 60.1939 143.887 60.25 143.75 60.25C143.613 60.25 143.482 60.1939 143.388 60.0948L133.388 49.5948C133.197 49.3949 133.205 49.0784 133.405 48.8879Z" fill="#333333"/>
<defs>
<clipPath id="clip0">
<rect width="24" height="24" fill="white" transform="translate(90 3)"/>
</clipPath>
</defs>
</svg>
